<svg version="1" xmlns="http://www.w3.org/2000/svg" width="770.667" height="770.667" viewBox="0 0 578.000000 578.000000"><path d="M268.5 7.2c-43.5 4.4-87.2 26.7-115.7 59.3-48.2 54.9-59 131-27.9 196.9 2.7 5.8 7.4 14.4 10.5 19.1 3.1 4.7 5.6 9 5.6 9.5s-2.6 4.9-5.7 9.7c-20.4 31.6-30.7 72.9-27.4 110 4.9 56.6 33.1 104.7 79.6 135.8 60 40.2 139 40.2 199 0 14.3-9.5 27.1-20.9 37-32.6 25.3-30.1 39.2-63.8 42.6-103.1 3.3-37.2-7-78.5-27.4-110.1-3.1-4.8-5.7-9.2-5.7-9.7s2.6-4.9 5.7-9.7c20.4-31.6 30.7-72.9 27.4-110-4.9-56.6-33.1-104.7-79.6-135.8C352 13.4 310.1 3 268.5 7.2zm41.1 92.3c24.9 6.3 45.8 23.3 57.8 47.2 11.9 23.8 11.9 54.8 0 78.6-15.7 31.2-45.8 49.9-80.4 49.9-23.8 0-44.7-8.3-61.9-24.6-27.5-26.3-35.3-67.8-19.1-102.3 18.5-39.5 60.8-59.4 103.6-48.8zm-4.4 211.1c25.6 4.8 49.7 23.4 61.9 47.5 12.2 24.4 12.3 55.1.3 79.2-19.7 39.3-62.5 58.3-105.2 46.7-23.6-6.5-44.1-23.7-55.7-46.9-11.3-22.6-11.7-52.5-1.1-75.5 6-13.2 15.6-25.5 25.8-33.4 22.2-17.1 46.5-22.9 74-17.6z"/></svg>