<svg version="1" xmlns="http://www.w3.org/2000/svg" width="1300" height="1300" viewBox="0 0 975.000000 975.000000"><path d="M56 5.1C48.2 8.6 42.9 15.2 41.6 23c-2.2 13.4-2.3 905.4-.1 928.3.9 9.2 6 16.2 14.4 20l4.6 2h351c259.3 0 352.8-.2 358-1.1 21.7-3.5 49.3-14.6 70-28.1 7.4-4.8 16.9-11.6 19.6-14.1.9-.8 5.3-4.8 9.7-8.8 16.5-14.8 34.8-39.6 44.4-60.2 5.4-11.6 6.7-14.8 10.7-26.3 5.3-15.3 9-32.7 10.7-50.5 1.3-12.7.2-37.9-2.1-50.7-8.9-49-34.4-94.8-68.8-123.3-3.8-3.1-8.1-6.7-9.5-8-3.9-3.4-45.1-35.3-49.2-38.2-1.9-1.3-3.7-2.7-4-3-.3-.4-5.7-4.5-12-9.1-6.3-4.7-20.3-15.1-31-23-10.7-8-28.7-21.2-40-29.4-11.3-8.1-23.6-17.1-27.4-19.9-3.8-2.8-8-5.8-9.2-6.6-1.2-.8-10.6-7.5-20.8-14.9-16.7-12-20.3-15.1-17.8-15.1.4 0 1.8-1 3.2-2.3 1.4-1.2 5.4-4.7 9-7.8 10.8-9.2 38.2-33.1 42.5-37 2.2-2 6.9-6.2 10.5-9.4 15.9-14.2 20.7-18.5 39-35.4 13.1-12.2 13.8-12.8 33.7-31.7 18.3-17.5 34.1-33.1 36.9-36.5 7.4-9.1 16.7-25.9 22.8-41.2 13-32.7 15.3-66.9 7.2-104.3-2.1-9.9-8.2-27.2-13.4-38.4-3-6.5-11.6-21-14.3-24.4-.5-.6-3-3.8-5.6-7.1-25.2-31.8-66.3-53.9-113.8-61-6-.9-12.3-1.9-14-2.3-1.6-.3-143.2-.7-314.5-.9L60.5 3 56 5.1z"/></svg>